<?xml version="1.0" encoding="utf-8"?>
<!-- Generator: Adobe Illustrator 25.0.0, SVG Export Plug-In . SVG Version: 6.00 Build 0)  -->
<svg version="1.1" id="Logo" xmlns="http://www.w3.org/2000/svg" xmlns:xlink="http://www.w3.org/1999/xlink" x="0px" y="0px"
	 viewBox="0 0 194.9 36" style="enable-background:new 0 0 194.9 36;" xml:space="preserve">
<style type="text/css">
	.st0{fill:#02A5C1;}
	.st1{fill:#017387;}
	.st2{fill:#FFFFFC;}
</style>
<desc>Created with Sketch Beta.</desc>
<g>
	<g id="Page-1">
		<g id="dealabs-logo">
			<g id="Logo_1_" transform="translate(0.000000, 17.000000)">
				<polygon id="Shape" class="st0" points="0,11.7 3.7,19 31,19 34.4,11.7 32.7,9.3 24.9,12.9 4.1,6 				"/>
				<polygon id="Shape_1_" class="st1" points="1.2,14.1 3.6,19 31,19 33.7,13.3 24.9,15.7 9,12.5 				"/>
				<polygon id="Shape_2_" class="st2" points="13.5,-17 13.5,-7.7 7.4,1.3 24.8,7.1 29.8,4.8 21.2,-7.7 21.2,-17 				"/>
				<path id="Shape_3_" class="st2" d="M80,3.5h9.6c-0.1-1.7-0.6-2.9-1.3-3.7c-0.8-0.9-2-1.3-3.5-1.3c-1.4,0-2.5,0.4-3.4,1.3
					C80.5,0.6,80,1.9,80,3.5 M91.3,10.7H96c-0.7,2.6-2,4.6-3.9,6c-1.9,1.4-4.4,2.1-7.3,2.1c-3.6,0-6.4-1.1-8.4-3.4
					c-2-2.2-3-5.4-3-9.6c0-4,1-7.1,2.9-9.3c2-2.3,4.8-3.4,8.4-3.4c3.8,0,6.7,1.1,8.7,3.4s3,5.5,3,9.6v1c0,0.3,0,0.5-0.1,0.7H80
					c0.1,1.9,0.5,3.4,1.4,4.3c0.8,1,2,1.5,3.7,1.5c1.1,0,2-0.2,2.7-0.7c0.7-0.5,1.3-1,1.7-1.5S90.5,10.7,91.3,10.7"/>
				<path id="Shape_4_" class="st2" d="M111.8,5.9c-0.9,0.4-2.1,0.8-3.7,1.2c0,0-1.4,0.3-2.2,0.5s-2,0.6-2.4,1.2s-0.7,1.4-0.7,2.1
					c0,0.9,0.3,1.7,0.8,2.2c0.6,0.5,1.4,0.7,2.4,0.7c1.8,0,3.1-0.5,4.1-1.5c0.9-0.9,1.4-2.1,1.5-3.6c0-0.2,0.1-1.8,0.1-1.8
					L111.8,5.9L111.8,5.9z M113.3,17.4c-1.3,0.7-2.7,1.1-4.2,1.3s-2.8,0.2-3.9,0.2c-2.3,0-4.2-0.6-5.9-1.8c-1.7-1.2-2.5-3.2-2.5-6
					c0-2.6,0.8-4.5,2.3-5.6s3.5-1.9,5.9-2.2c0.3,0,0.1-0.1,2.6-0.3c2.5-0.2,4.1-1.2,4.1-2.4c0-0.9-0.5-1.5-1.5-1.8s-1.9-0.4-2.7-0.4
					c-0.9,0-1.7,0.1-2.4,0.4c-0.7,0.2-1.2,0.7-1.5,1.4h-6.3c0.2-1.9,1.1-3.5,2.6-4.8c1.7-1.4,4.1-2.1,7.2-2.1c3.5,0,6.1,0.6,7.9,1.8
					c1.8,1.2,2.7,3,2.7,5.2v8.5c0,2.5-0.5,4.4-1.4,5.8C115.7,15.7,114.6,16.7,113.3,17.4L113.3,17.4z"/>
				<path id="Shape_5_" class="st2" d="M119.2-13.7h3.4c0.9,0,1.6,0.3,2.3,0.9c0.6,0.6,0.9,1.3,0.9,2.2v29h-6.6L119.2-13.7
					L119.2-13.7z"/>
				<path id="Shape_7_" class="st2" d="M165.5,5.8c0-2.2-0.5-4-1.4-5.2c-0.9-1.3-2.2-2-3.9-2c-1.8,0-3.1,0.6-4,1.9s-1.4,3.1-1.4,5.3
					c0,2.6,0.4,4.5,1.3,5.7c0.9,1.3,2.3,2,3.9,2c1.8,0,3.1-0.7,4-2C165.1,10.2,165.5,8.3,165.5,5.8 M154.8-10.6v7.5
					c0.7-1.2,1.7-2.1,3-2.9c1.1-0.6,2.5-0.9,4.1-0.9c2.9,0,5.4,1.2,7.2,3.6c1.9,2.4,2.8,5.6,2.8,9.4c0,3.9-0.9,7-2.8,9.4
					c-0.9,1.2-2.2,2-3.8,2.6c-1.6,0.5-3.2,0.8-4.7,0.8c-3,0-5.8-0.8-8.4-2.3c-2.6-1.6-3.9-4.5-3.9-9v-21.4h3.2
					c0.9,0,1.6,0.3,2.3,0.9C154.5-12.2,154.8-11.5,154.8-10.6"/>
				<path id="Shape_8_" class="st2" d="M172.7,10.2h6.3c0.1,1.2,0.5,2.2,1.4,2.8s2.2,0.9,3.8,0.9c1.1,0,2.1-0.2,2.9-0.7
					c0.8-0.4,1.1-1,1.1-1.8c0-1-1.1-1.8-3.2-2.4c-0.2-0.1-3.6-0.9-3.8-0.9c-2.9-0.8-4.9-1.7-6-2.7c-1.3-1.1-1.9-2.6-1.9-4.5
					c0-2.4,0.9-4.3,2.7-5.9c1.9-1.4,4.3-2.1,7.3-2.1c3.3,0,5.9,0.7,7.8,2.1c1.8,1.6,2.8,3.6,2.9,6.1h-4c-1,0-1.8-0.4-2.4-1.2
					c-0.1-0.1-0.8-0.9-1.1-1.1c-0.8-0.6-1.8-0.8-3.1-0.8s-2.2,0.2-2.8,0.6s-0.8,0.9-0.8,1.7c0,1,1.6,1.8,4.9,2.5
					c0.4,0.1,2.3,0.5,2.5,0.6c2.8,0.8,4.8,1.6,6,2.6c1.2,1.1,1.8,2.6,1.8,4.5c0,2.7-1,4.8-3,6.3c-1.9,1.4-4.7,2.1-8.5,2.1
					c-3.6,0-6.2-0.7-8-2.1c-1.8-1.4-2.7-3.5-2.7-6.2V10.2z"/>
				<path id="Shape_9_" class="st2" d="M68.7-9.4c-2.4-2.6-6.1-3.9-11.1-3.9l-11.1-0.1L53-7.7h4.5c2.8,0,4.8,0.8,6,2.5
					c1.3,1.7,2,4.3,2,7.9c0,3.7-0.7,6.3-2.1,7.8c-1.4,1.6-3.7,2.4-6.8,2.4h-5.4V-4.6l-6.5-5.7v28.9h10.9c3.1,0,5.4-0.2,6.9-0.7
					c1.6-0.4,3-1.2,4.4-2.2c1.6-1.2,2.9-3,3.9-5.4c0.9-2.3,1.3-4.9,1.3-7.7C72.4-2.6,71.1-6.6,68.7-9.4"/>
				<path id="Shape_10_" class="st2" d="M141.4,5.9c-0.9,0.4-2.1,0.8-3.7,1.2c0,0-1.4,0.3-2.2,0.5s-2,0.6-2.4,1.2s-0.7,1.4-0.7,2.1
					c0,0.9,0.3,1.7,0.8,2.2c0.6,0.5,1.4,0.7,2.4,0.7c1.8,0,3.1-0.5,4.1-1.5c0.9-0.9,1.4-2.1,1.5-3.6c0-0.2,0.1-1.8,0.1-1.8
					L141.4,5.9L141.4,5.9z M142.9,17.4c-1.3,0.7-2.7,1.1-4.2,1.3s-2.8,0.2-3.9,0.2c-2.3,0-4.2-0.6-5.9-1.8c-1.7-1.2-2.5-3.2-2.5-6
					c0-2.6,0.8-4.5,2.3-5.6s3.5-1.9,5.9-2.2c0.3,0,0.1-0.1,2.6-0.3c2.5-0.2,4.1-1.2,4.1-2.4c0-0.9-0.5-1.5-1.5-1.8s-1.9-0.4-2.7-0.4
					c-0.9,0-1.7,0.1-2.4,0.4c-0.7,0.2-1.2,0.7-1.5,1.4h-6.3c0.2-1.9,1.1-3.5,2.6-4.8c1.7-1.4,4.1-2.1,7.2-2.1c3.5,0,6.1,0.6,7.9,1.8
					c1.8,1.2,2.7,3,2.7,5.2v8.5c0,2.5-0.5,4.4-1.4,5.8C145.3,15.7,144.2,16.7,142.9,17.4L142.9,17.4z"/>
			</g>
		</g>
	</g>
</g>
</svg>
